<?xml version="1.0" encoding="utf-8"?>
<!-- Generator: Adobe Illustrator 19.0.0, SVG Export Plug-In . SVG Version: 6.00 Build 0)  -->
<svg version="1.1" id="layer" xmlns="http://www.w3.org/2000/svg" xmlns:xlink="http://www.w3.org/1999/xlink" x="0px" y="0px"
	 viewBox="-153 -46 652 652" style="enable-background:new -153 -46 652 652;" xml:space="preserve">
<style type="text/css">
	.st0{clip-path:url(#SVGID_2_);fill:url(#SVGID_3_);}
</style>
<g>
	<defs>
		<path id="SVGID_1_" d="M85.7,321c3.5-19.3,12.4-44.3,27.5-59.2c2-1.8,6.9-6,9.7-2.9c1.1,2,0.9,6.6,0.2,9.1
			c-6.2,22.2-16.8,52.7-24.2,61.4c-2.9,3.3-5.5,4.7-7.5,4.7C86.1,334.2,83.9,326.3,85.7,321 M173,307.9c-4.9-3.8-4.7-14.2-3.8-20.8
			c1.8-12.4,7.8-25.7,19.1-32.6l0.7-0.4c1.8,12,0,23.7-2.9,35.2c-1.8,5.5-3.8,12-7.8,16.6c-0.9,1.1-2.2,2.4-3.8,2.4
			C173.8,308.3,173.4,308.3,173,307.9 M238.5,289.7c-4.7-3.5-6-14.2-6.6-22.2c-0.4-6.2,0.2-18.2,5.8-23.3c3.5-2.7,7.8-2,9.3,1.8
			c3.1,7.3,3.5,20.2,2.2,28.6c-0.7,5.1-2,14-7.3,15.3c-0.4,0.2-0.9,0.2-1.1,0.2C240.1,290.2,239.2,289.9,238.5,289.7 M-51.5,182.5
			c-18.6,12.4-46.5,34.1-65.8,72.5c-19.3,38.6-19.5,90.8,12,119.2C-82.5,395-45.7,400.9-9,389.9c26.6-8,53-29.7,74-57.8
			c-0.9,16.8,10.2,24.2,20.6,24.2c23.3-0.2,32.6-29.5,32.6-29.5c2.9,8.4,4.2,12.2,13.1,14.4c15.1,3.5,21.5-8.9,23.9-18.2
			c2.7,6,9.5,11.3,16.6,10.4c11.1-1.3,18.6-11.5,22.6-20.6c14.2-31.5,13.3-67.4,3.8-99.7c6.2-0.4,10.4-2.2,15.7-4
			c3.1-1.1,5.3-2,8.4-3.1c-4.7,20.4-7.5,41.7-6.9,63.4c0.9,14.4,2,31,12.4,40.5c4.4,4.4,10.9,5.8,17.1,3.5
			c7.8-2.4,14.2-13.5,16.8-21.5c1.8-4.9,4.4-16.6,5.1-24.4c3.1-2.2,6.2-4.2,9.3-6.9c1.3-1.1,2-1.6,3.1-2.4
			c-1.3,8.9-2.7,19.1-0.4,27.9c1.6,6.2,5.5,11.5,11.5,13.1c10.2,1.8,20.2-11.5,25.9-19.3c2,3.5,4.7,7.3,8.9,8.6
			c4.9,1.6,11.5-0.7,15.5-5.5c11.7-14.4,16.6-33.9,22.4-51.4l0.7-1.8c3.1-0.9,5.8-2.2,8.6-4c-2.4,7.3-4.4,15.1-5.3,23
			c-1.1,9.5,0.7,21.7,8.9,26.6c4.2,2.2,9.7-0.7,12.6-3.1c9.5-8.4,15.5-20.6,21.3-31.5l0.4-0.7c0,6,1.1,13.7,4,18.8
			c1.8,2.9,5.3,5.3,8.6,4.9c10-1.3,14.6-10.6,19.9-18.4c0.9-1.3,2-3.1,2.4-4c-2.2,12.6-6.6,26.6-9.1,39.2
			c-0.7,3.3-2.9,10.4-1.6,14.6c1.3,4.9,5.1,8.2,12.4,8.6c1.3,0,2-0.7,2.2-1.6c-1.8-8-0.2-14.6,2.7-26.4c5.5-24.2,11.3-48.3,16.6-72
			c1.1-5.5,2-13.7-2.9-17.7c-1.8-1.1-3.5-1.1-5.5-0.4c-2.9,1.1-4.7,4-5.5,6.9c-4.9,13.7-8.6,28.4-16.6,41.2
			c-2.4,3.8-5.5,8.6-9.5,8.6c-0.9,0-1.8-0.4-2.2-2.4c-2.9-11.1,2.4-23.9,6-35c1.3-3.3,2-7.8,0.4-10.9c-0.9-1.6-2.4-2.4-4.2-2.7
			c-4.9-0.2-7.8,4-10.2,7.8c-8.6,16.6-15.5,35.7-27,51c-1.8,2-3.5,4.4-6.2,4.2c-1.1-0.2-2.2-1.1-2.7-2.7c-1.8-6.6,0.2-16.8,3.1-24.8
			c2.2-5.8,4.7-9.5,5.5-15.3c0.4-3.1-0.7-5.8-3.5-7.3c-1.6-0.7-3.1-0.9-5.3,0.2c-4.2,2.2-7.8,5.8-12.4,6.6c0.9-3.5,2-6.9,1.8-10.4
			c-0.4-3.1-1.3-6.6-4.2-7.8c-2.9-0.9-6.2-0.2-8.6,2.2c-7.1,7.5-7.3,19.5-3.8,28.8c-2,12-7.5,23.7-14,33.9c-2.4,3.3-4.7,7.1-8.6,7.8
			c-2.7,0-4.2-1.8-4.9-5.3c3.8-8,8.6-16.6,10.6-25c1.6-6.4,3.8-16.4-0.2-22.6c-0.9-1.6-2.9-2.4-4.9-2.2c-4,0.2-6.9,3.1-9.1,6.2
			c-8.4,12.9-10.2,27.7-10.2,42.8c-1.6,4.9-4,9.7-7.8,13.5c-1.8,1.8-4.9,3.5-7.3,2.4c-1.3-0.9-2.2-2.2-2.4-4
			c-1.6-9.3,1.8-18.4,4.7-27.3c5.1-15.5,10.4-19.5,7.5-25.9c-1.1-2.4-3.5-4-6-4c-3.1-0.2-6.9,1.8-8.6,4.7
			c-4.2,7.3-8.4,14.8-14.6,20.8c-3.5,3.3-6.6,6.4-12,8.9c-0.4-3.1-1.1-6-2-8.9c-3.1-8.9-8.9-17.3-19.1-16.4
			c-3.5,0.2-7.1,2.2-9.5,3.8c1.1-12.9,4.2-25.5,10.2-36.8c3.5-6.9,9.5-14,10-19.7c0.4-3.1-1.1-6.2-3.8-7.5c-2.7-1.3-5.5-1.3-8.6,0.2
			c-6.2,3.8-9.7,10.6-12.6,16.8c-5.8,6.6-14.6,9.7-23.5,11.7c-11.7,3.3-19.5,0-27.5-7.1c-2.2-1.6-4.9-3.5-8-3.1
			c-3.3,0-6.4,3.1-7.8,5.3c-1.6,2.7-1.6,6.4,0,8.9c6.9,9.5,15.5,16.8,19.5,29.9c0.9,3.1,1.8,6,1.8,9.1c-22.8,14-35.7,42.3-34.1,68.2
			c-2.2,7.5-4.2,20.6-13.1,20.2c-4.4-0.9-11.1-15.5,0.7-59.2c0.4-6.6,2.2-13.5-1.3-19.7c-2-3.5-6.6-4-10.4-4
			c-29,3.5-45.9,37.7-58.5,61.4c-16,26.6-35.5,43-55.2,53.2c-48.7,25.3-104.6,17.3-109.5-37c-5.3-50.7,25.3-111,93.1-140.5
			c52.5-22.8,87.7-6,87.7,25.3c0,15.3-9.3,62-74.9,87.1c-11.3,4.2-31.9,6.4-40.5-3.3c-13.5-15.3-9.3-34.6-1.1-48.1
			c14.4-22.2,39-35.9,65.1-43c2.2-0.4,3.8-1.6,4.9-4c0.7-1.6,0.4-3.1-0.2-5.1c-1.6-2.7-4.2-3.3-6.9-3.1
			c-23.7,3.8-45.2,14.2-61.8,28.8c-19.7,18.6-34.1,42.5-31.7,69.1c1.8,17.5,13.7,33,31.2,37c19.3,4,45.2-5.5,62.5-14.8
			c35.9-21.3,65.6-57.4,69.6-97.9c1.3-18.2-7.8-36.1-23.7-45.4c-9.7-4.9-23-8-38.6-8C13.4,152.3-19.1,161-51.5,182.5"/>
	</defs>
	<clipPath id="SVGID_2_">
		<use xlink:href="#SVGID_1_"  style="overflow:visible;"/>
	</clipPath>
	
		<linearGradient id="SVGID_3_" gradientUnits="userSpaceOnUse" x1="-340.7928" y1="-2.9514" x2="-338.5771" y2="-2.9514" gradientTransform="matrix(268.2799 -71.6671 71.6671 268.2799 91513.2188 -23276.8496)">
		<stop  offset="0" style="stop-color:#9D773E"/>
		<stop  offset="0.4688" style="stop-color:#D6B67E"/>
		<stop  offset="0.511" style="stop-color:#DBBC84"/>
		<stop  offset="0.6238" style="stop-color:#CDAA73"/>
		<stop  offset="1" style="stop-color:#A0703E"/>
	</linearGradient>
	<polygon class="st0" points="-198.8,169 429.8,1 532.3,384.5 -96.3,552.5 	"/>
</g>
</svg>
